<?xml version="1.0" standalone="no"?>
<!DOCTYPE svg PUBLIC "-//W3C//DTD SVG 20010904//EN"
 "http://www.w3.org/TR/2001/REC-SVG-20010904/DTD/svg10.dtd">
<svg version="1.0" xmlns="http://www.w3.org/2000/svg"
 width="1824.000000pt" height="1824.000000pt" viewBox="0 0 1824.000000 1824.000000"
 preserveAspectRatio="xMidYMid meet">

<g transform="translate(0.000000,1824.000000) scale(0.100000,-0.100000)"
fill="#000000" stroke="none">
<path d="M8454 18053 c-73 -52 -435 -306 -1072 -750 -145 -101 -328 -231 -408
-290 -138 -102 -147 -110 -173 -168 -16 -34 -64 -115 -108 -181 -215 -322
-507 -835 -1025 -1804 -63 -118 -248 -462 -410 -765 -377 -701 -723 -1364
-1303 -2490 -586 -1138 -562 -1094 -726 -1330 -114 -165 -186 -291 -229 -398
-37 -93 -70 -217 -70 -264 l0 -33 -39 20 c-22 11 -97 45 -168 75 -245 107
-462 233 -602 350 -132 110 -210 199 -292 334 -49 81 -93 140 -128 173 -53 48
-57 50 -100 44 -108 -15 -253 -114 -336 -230 -97 -136 -146 -284 -147 -441 -2
-270 141 -466 525 -719 79 -51 167 -116 196 -143 l54 -49 -129 -81 c-150 -94
-378 -279 -447 -361 -51 -62 -59 -83 -98 -270 -13 -62 -26 -117 -29 -121 -3
-4 -48 -36 -100 -71 -259 -173 -255 -164 -245 -444 9 -241 15 -222 -125 -377
-110 -120 -120 -142 -120 -255 0 -128 58 -263 180 -417 40 -51 70 -98 70 -111
0 -13 -52 -95 -120 -190 -262 -367 -417 -648 -471 -858 -26 -100 -22 -213 11
-300 28 -75 111 -153 223 -208 104 -51 175 -65 259 -50 79 15 109 31 236 124
109 79 168 107 272 126 81 15 132 47 164 102 28 49 165 393 255 643 34 94 66
177 71 185 7 11 24 -1 77 -51 85 -80 155 -117 308 -164 105 -33 136 -38 250
-42 260 -10 437 57 696 263 96 76 246 240 367 399 133 176 288 369 366 459 56
64 343 311 454 390 50 37 78 46 69 24 -29 -71 -166 -386 -202 -468 -84 -187
-164 -408 -225 -619 -96 -337 -126 -475 -160 -756 -11 -93 -23 -177 -25 -185
-2 -8 -12 -103 -22 -210 -24 -264 -24 -782 0 -1035 31 -321 76 -594 133 -805
70 -258 220 -548 412 -794 54 -70 136 -190 183 -268 99 -167 216 -296 386
-429 225 -176 235 -193 292 -475 40 -196 46 -267 71 -819 7 -169 26 -402 36
-452 l4 -23 5684 0 5683 0 144 147 c287 294 447 520 639 902 194 389 314 759
405 1256 50 271 77 613 78 975 0 227 -2 282 -24 565 -69 903 -271 1527 -758
2330 -665 1100 -1183 1776 -1828 2388 -557 527 -997 865 -1462 1121 -238 131
-527 245 -695 274 l-98 17 -20 52 c-46 125 -174 224 -686 531 -217 130 -417
257 -444 281 -55 49 -47 33 -245 486 -164 375 -182 410 -320 645 -60 102 -147
255 -194 340 l-84 155 -6 140 c-7 179 -13 191 -114 239 -73 35 -77 38 -139
133 -35 54 -121 202 -191 328 -187 339 -352 622 -401 692 -51 71 -138 153
-209 194 -68 40 -178 73 -217 65 -17 -3 -68 -33 -113 -65 -46 -33 -145 -99
-222 -147 -76 -48 -214 -138 -308 -199 -196 -129 -250 -181 -467 -450 -179
-222 -274 -318 -336 -340 -164 -57 -171 -66 -182 -234 -4 -59 -13 -118 -20
-131 -7 -14 -84 -98 -170 -187 -145 -149 -170 -181 -317 -400 -332 -495 -422
-673 -619 -1224 -34 -97 -77 -205 -94 -240 -79 -157 -195 -324 -238 -340 -97
-37 -434 -180 -517 -219 -55 -27 -147 -79 -205 -117 -181 -119 -240 -150 -435
-227 -104 -41 -203 -78 -220 -82 -75 -18 -454 -159 -590 -219 -83 -37 -238
-112 -345 -168 -107 -56 -238 -123 -290 -150 l-95 -48 -117 61 -118 61 29 57
c33 65 86 137 196 267 42 50 126 169 188 265 141 222 560 798 767 1055 95 118
359 469 515 685 82 113 205 284 275 380 70 96 221 303 336 460 116 157 273
373 350 480 78 107 235 323 350 480 116 157 281 386 369 510 251 356 338 476
561 780 116 157 264 362 330 455 66 94 156 220 200 280 269 367 271 371 278
427 3 29 20 215 36 413 46 548 77 838 127 1200 37 262 47 360 47 475 1 166
-10 212 -54 235 -46 24 -63 19 -146 -42z m256 -6573 c10 -5 27 -25 37 -43 14
-24 44 -46 103 -76 104 -55 164 -71 264 -71 74 0 83 3 155 42 41 23 92 59 113
80 37 37 38 38 113 38 145 0 270 -51 444 -183 101 -77 178 -162 241 -267 57
-98 140 -263 180 -360 19 -47 67 -159 107 -249 88 -198 96 -229 60 -265 -15
-14 -34 -26 -43 -26 -10 0 -31 -5 -48 -11 -27 -10 -50 -6 -161 26 -72 20 -171
47 -221 60 -130 34 -388 138 -480 193 -44 27 -111 66 -149 87 -173 94 -308
207 -385 321 -18 27 -35 51 -36 53 -2 2 -32 -22 -66 -54 -35 -32 -99 -82 -143
-111 -106 -68 -348 -188 -510 -252 -231 -92 -565 -182 -700 -189 -87 -5 -91
-4 -114 20 -23 25 -23 30 -19 149 6 145 31 235 105 375 77 145 104 181 271
355 62 65 173 136 317 204 55 25 134 63 175 84 64 32 137 56 225 74 41 8 147
6 165 -4z"/>
</g>
</svg>
